<?xml version="1.0" standalone="no"?><!DOCTYPE svg PUBLIC "-//W3C//DTD SVG 1.1//EN" "http://www.w3.org/Graphics/SVG/1.1/DTD/svg11.dtd"><svg t="1579164902640" class="icon" viewBox="0 0 1024 1024" version="1.1" xmlns="http://www.w3.org/2000/svg" p-id="3955" xmlns:xlink="http://www.w3.org/1999/xlink" width="128" height="128"><defs><style type="text/css"></style></defs><path d="M137.088 858.896a381.336 94.504 0 1 0 762.672 0 381.336 94.504 0 1 0-762.672 0Z" fill="#B8CBCD" p-id="3956"></path><path d="M720.88 560.336h221.712c1.6-14.456 2.488-29.12 2.488-44 0-218.704-177.296-396-396-396s-396 177.296-396 396 177.296 396 396 396c169.408 0 313.888-106.408 370.456-256H686.952c-32.024 43.624-83.6 72-141.864 72-94.512 0-171.608-74.512-175.8-168H720.88z m-175.792-264c94.52 0 171.608 74.512 175.8 168h-351.6c4.192-93.488 81.28-168 175.8-168z" fill="#B9E3ED" p-id="3957"></path><path d="M549.088 888.336c-231.592 0-420-188.416-420-420a24 24 0 1 1 48 0c0 205.128 166.88 372 372 372 157.416 0 248.72-56.968 325.68-203.176a23.96 23.96 0 0 1 32.416-10.056 24 24 0 0 1 10.056 32.416c-85.544 162.52-192.2 228.816-368.152 228.816z" fill="#324654" p-id="3958"></path><path d="M936 577.4a24 24 0 0 1-24-24c0-205.128-157.792-361.064-362.912-361.064-205.12 0-372 166.872-372 372a24 24 0 1 1-48 0c0-231.584 188.408-420 420-420C780.672 144.336 960 321.808 960 553.4a24 24 0 0 1-24 24z" fill="#FFFFFF" p-id="3959"></path><path d="M549.088 936.336c-231.592 0-420-188.416-420-420s188.408-420 420-420c231.584 0 420 188.416 420 420 0 15.16-0.888 30.84-2.64 46.64a23.984 23.984 0 0 1-23.848 21.36H396.464a151.656 151.656 0 0 0 148.624 120c48.128 0 93.928-23.248 122.528-62.2 4.512-6.16 12.752-8.736 20.392-8.736h232c7.88 0 14.808 2.816 19.28 9.296 4.488 6.488 5.496 14.76 2.704 22.128-61.408 162.4-219.304 271.512-392.904 271.512z m0-792c-205.12 0-372 166.872-372 372s166.88 372 372 372c141.88 0 271.912-82.272 333.888-208H698.624c-37.832 45.296-94.336 72-153.536 72-107.224 0-194.976-83.864-199.776-190.928a24 24 0 0 1 6.632-17.656c4.528-4.736 9.504-6.352 16.056-6.352h552c0.376-6.76 1.088-14.504 1.088-21.064 0-205.128-166.88-372-372-372z m171.792 344H369.288a24 24 0 0 1-23.976-25.072c4.8-107.064 92.544-190.928 199.776-190.928 107.224 0 194.976 83.864 199.776 190.928a24.024 24.024 0 0 1-23.984 25.072zM392 441.4h304c-14.664-69-78.008-121.064-150.912-121.064-72.912 0-138.424 52.064-153.088 121.064z" fill="#324654" p-id="3960"></path><path d="M233.76 944.56c-51.624 0-93.984-15.232-124.376-45.616C1.184 790.744 93.264 529.136 319.016 303.368c225.76-225.76 487.368-317.848 595.584-209.64 50.776 50.776 59.176 137.392 23.672 243.904a24 24 0 0 1-45.536-15.192c29.456-88.36 25.168-157.528-12.08-194.784C794.448 41.48 552.808 137.448 352.96 337.304 153.128 537.152 57.128 778.808 143.328 865.008c42.168 42.168 125.944 41.808 229.824-1.008a24 24 0 0 1 18.296 44.376c-58.592 24.144-111.8 36.184-157.688 36.184z" fill="#324654" p-id="3961"></path></svg>