<?xml version="1.0" standalone="no"?><!DOCTYPE svg PUBLIC "-//W3C//DTD SVG 1.1//EN" "http://www.w3.org/Graphics/SVG/1.1/DTD/svg11.dtd"><svg t="1579164920502" class="icon" viewBox="0 0 1024 1024" version="1.1" xmlns="http://www.w3.org/2000/svg" p-id="4083" xmlns:xlink="http://www.w3.org/1999/xlink" width="128" height="128"><defs><style type="text/css"></style></defs><path d="M133.328 906.896a381.336 81.488 0 1 0 762.672 0 381.336 81.488 0 1 0-762.672 0Z" fill="#B8CBCD" p-id="4084"></path><path d="M846.72 906.248c-43.488 0-86.592-16.288-119.304-49-65.728-65.728-63.312-175.08 5.384-243.776l177.544-177.544c22.832-22.832 34.76-53.768 33.576-87.104-1.176-33.32-15.016-64.848-38.952-88.8-23.376-23.376-53.656-36.248-85.256-36.248s-61.88 12.872-85.256 36.248L573.04 421.44a23.984 23.984 0 0 1-33.936 0 23.984 23.984 0 0 1 0-33.936l161.416-161.408c66.84-66.832 171.56-66.832 238.392 0 32.56 32.552 51.376 75.536 52.984 121.04 1.656 46.8-15.248 90.384-47.608 122.736L766.736 647.416c-49.976 49.976-52.392 128.88-5.384 175.896 47.768 47.752 126.8 46.416 176.192-2.968a23.984 23.984 0 0 1 33.936 0 23.984 23.984 0 0 1 0 33.936c-34.592 34.592-79.88 51.968-124.76 51.968z" fill="#783741" p-id="4085"></path><path d="M99.408 481.456l84.84-84.856c99.968-99.968 257.768-96.176 358.752 4.8l5.128-2.96c100.984 100.992 101.808 263.904 1.832 363.872l-84.848 84.848" fill="#FFBAB0" p-id="4086"></path><path d="M473.112 863.16a16 16 0 0 1-11.312-27.312l84.848-84.848c93.568-93.568 92.752-246.656-1.832-341.248-94.592-94.576-247.672-95.408-341.248-1.832L118.72 492.776a16 16 0 1 1-22.624-22.624l84.848-84.864c106.04-106.056 279.424-105.232 386.496 1.832 107.064 107.072 107.88 280.456 1.832 386.504L484.424 858.48c-3.128 3.12-7.224 4.68-11.312 4.68z" fill="#783741" p-id="4087"></path><path d="M451.904 849.4a23.984 23.984 0 0 1-16.968-40.968l84.848-84.848c92.616-92.624 94.064-230.864 3.368-321.576a23.984 23.984 0 0 1 0-33.936 23.984 23.984 0 0 1 33.936 0c108.248 108.248 106.768 279.32-3.368 389.456l-84.848 84.848a23.936 23.936 0 0 1-16.968 7.024z" fill="#783741" p-id="4088"></path><path d="M107.416 536.696a24 24 0 0 1-15.592-42.256l90.56-77.368c102.928-102.312 285.048-141.152 400.616-25.576a23.984 23.984 0 0 1 0 33.936 23.984 23.984 0 0 1-33.936 0c-94.872-94.856-246.936-60.216-333.424 26.256a23.2 23.2 0 0 1-1.384 1.28l-91.264 77.968a23.84 23.84 0 0 1-15.576 5.76z" fill="#FFFFFF" p-id="4089"></path><path d="M107.2 481.104c33.048-33.048 134.376 21.736 239.344 126.712 104.968 104.976 159.76 206.304 126.712 239.352-33.048 33.048-141.416-14.704-246.384-119.68C121.896 622.512 74.152 514.152 107.2 481.104z" fill="#FFBAB0" p-id="4090"></path><path d="M443.016 873.512c-56.344 0-145.624-52.88-227.456-134.72-51.008-51-91.76-105.92-114.752-154.648-24.656-52.256-26.408-92.872-4.92-114.36 9.48-9.472 22.328-14.28 38.192-14.28 51.072 0 136.816 54.024 223.776 140.992 89.648 89.656 176.624 212.064 126.712 261.976-9.976 9.984-23.952 15.04-41.552 15.04zM134.088 487.504c-7.08 0-12.312 1.648-15.568 4.904-8.024 8.032-9.896 33.296 11.232 78.08 21.464 45.488 59.976 97.216 108.44 145.68 86.12 86.12 166.544 125.344 204.832 125.344 6.056 0 14.248-0.984 18.928-5.664 18.864-18.864-14.672-104.68-126.712-216.728C244.32 528.2 168.704 487.504 134.088 487.504z" fill="#783741" p-id="4091"></path><path d="M443.032 881.08h-0.016c-58.368-0.008-149.864-53.816-233.112-137.064-51.64-51.632-92.952-107.352-116.328-156.888-33.592-71.184-20.36-106.416-3.344-123.432a51.6 51.6 0 0 1 4.768-4.208L175.28 379.192c52.528-52.536 122.576-81.472 197.216-81.472 75.632 0 146.864 29.584 200.592 83.304 110.176 110.184 111.008 288.648 1.832 397.816l-83.12 83.128a25.104 25.104 0 0 1-1.584 1.736c-7.92 7.92-22.544 17.376-47.184 17.376z m-70.528-535.352c-61.824 0-119.816 23.936-163.28 67.408L127.76 494.608a24.016 24.016 0 0 1-2.912 2.488c-0.232 0.168-0.472 0.336-0.672 0.536-5.392 5.4-6.432 28.224 12.808 69.008 21.08 44.672 59.032 95.608 106.864 143.44 84.504 84.504 162.48 122.992 199.176 123h0.008c5.96 0 10.6-1.08 12.872-2.976l0.536-0.616c0.248-0.272 0.504-0.544 0.776-0.808l83.776-83.776c90.456-90.456 89.624-238.464-1.832-329.936-44.656-44.648-103.848-69.24-166.656-69.24z" fill="#783741" p-id="4092"></path><path d="M219.832 913.4a23.984 23.984 0 0 1-16.968-40.968l140.8-140.8a23.984 23.984 0 0 1 33.936 0 23.984 23.984 0 0 1 0 33.936l-140.8 140.8a23.928 23.928 0 0 1-16.968 7.032zM72 765.56a23.984 23.984 0 0 1-16.968-40.968l140.8-140.792a23.984 23.984 0 0 1 33.936 0 23.984 23.984 0 0 1 0 33.936l-140.8 140.792A23.92 23.92 0 0 1 72 765.56z" fill="#783741" p-id="4093"></path></svg>