<?xml version="1.0" standalone="no"?><!DOCTYPE svg PUBLIC "-//W3C//DTD SVG 1.1//EN" "http://www.w3.org/Graphics/SVG/1.1/DTD/svg11.dtd"><svg t="1579168703757" class="icon" viewBox="0 0 1024 1024" version="1.1" xmlns="http://www.w3.org/2000/svg" p-id="6264" xmlns:xlink="http://www.w3.org/1999/xlink" width="128" height="128"><defs><style type="text/css"></style></defs><path d="M153.32 866.512a381.336 94.504 0 1 0 762.672 0 381.336 94.504 0 1 0-762.672 0Z" fill="#B8CBCD" p-id="6265"></path><path d="M880.2 196l-60.68-113.88c-4.136-7.768-14.728-14.12-23.52-14.12H248.464c-8.8 0-18.736 6.664-22.072 14.808L180 196" fill="#F6E89A" p-id="6266"></path><path d="M179.992 220.008a24 24 0 0 1-22.2-33.112l46.4-113.192c7.048-17.216 25.664-29.704 44.272-29.704H796c17.608 0 36.416 11.288 44.704 26.832l60.68 113.888a24 24 0 0 1-42.36 22.568l-60.68-113.88c-0.272-0.224-2.016-1.272-2.912-1.44l-546.2 0.032a4.2 4.2 0 0 0-0.92 0.616l-46.112 112.488a24.016 24.016 0 0 1-22.208 14.904z" fill="#8D4520" p-id="6267"></path><path d="M76 620l42.384-113.016c3.08-8.24 12.816-14.984 21.616-14.984h24c8.8 0 16 7.2 16 16v104" fill="#F6E89A" p-id="6268"></path><path d="M76 644.008a24.016 24.016 0 0 1-22.472-32.432l42.384-113.024c6.624-17.704 25.168-30.552 44.088-30.552h24c22.056 0 40 17.944 40 40v104a24 24 0 1 1-48 0v-96h-15.088a4.088 4.088 0 0 0-0.384 0.264l-42.064 112.16A23.992 23.992 0 0 1 76 644.008z" fill="#8D4520" p-id="6269"></path><path d="M980 620l-35.224-112.728c-2.624-8.4-11.976-15.272-20.776-15.272h-32c-8.8 0-16 7.2-16 16v104" fill="#F6E89A" p-id="6270"></path><path d="M979.992 644.008a24 24 0 0 1-22.896-16.848L922.36 516H900v96a24 24 0 1 1-48 0v-104c0-22.056 17.944-40 40-40h32c19.176 0 37.96 13.808 43.68 32.12l35.224 112.72a24 24 0 0 1-22.912 31.168z" fill="#8D4520" p-id="6271"></path><path d="M76 620h904v240H76z" fill="#F6E89A" p-id="6272"></path><path d="M980 876H76a16 16 0 0 1-16-16v-240a16 16 0 0 1 16-16h904a16 16 0 0 1 16 16v240a16 16 0 0 1-16 16z m-888-32h872v-208h-872v208z" fill="#8D4520" p-id="6273"></path><path d="M884 196v424h-704v-424" fill="#F6E89A" p-id="6274"></path><path d="M884 636h-704a16 16 0 0 1-16-16v-424a16 16 0 0 1 32 0v408h672v-408a16 16 0 0 1 32 0v424a16 16 0 0 1-16 16z" fill="#8D4520" p-id="6275"></path><path d="M980 884H76a24 24 0 0 1-24-24v-240c0-2.88 0.512-5.728 1.528-8.424l48-128A24 24 0 0 1 124 468h24v-272c0-3.544 0.792-7.048 2.296-10.248l60.472-128A23.984 23.984 0 0 1 232.464 44h595.528c9.096 0 17.4 5.136 21.472 13.264l64 128c1.664 3.336 2.528 7.008 2.528 10.736v272h24a24 24 0 0 1 22.904 16.84l40 128c0.728 2.32 1.096 4.736 1.096 7.16v240a23.984 23.984 0 0 1-23.992 24z m-880-48h856V623.664L922.352 516H892a24 24 0 0 1-24-24V201.664L813.16 92H247.672L196 201.384V492a24 24 0 0 1-24 24h-31.368L100 624.352V836z" fill="#8D4520" p-id="6276"></path><path d="M300 276h464v272h-464z" fill="#FFFFFF" p-id="6277"></path><path d="M764 564h-464a16 16 0 0 1-16-16v-272a16 16 0 0 1 16-16h464a16 16 0 0 1 16 16v272a16 16 0 0 1-16 16z m-448-32h432v-240h-432v240zM884 220h-712a16 16 0 0 1 0-32h712a16 16 0 0 1 0 32z" fill="#8D4520" p-id="6278"></path><path d="M440 764H224a28.08 28.08 0 0 1-28-28 28.08 28.08 0 0 1 28-28h216a28.08 28.08 0 0 1 28 28 28.08 28.08 0 0 1-28 28z" fill="#FFFFFF" p-id="6279"></path><path d="M440 780H224c-24.256 0-44-19.736-44-44s19.744-44 44-44h216c24.256 0 44 19.736 44 44s-19.744 44-44 44z m-216-56c-6.616 0-12 5.384-12 12s5.384 12 12 12h216c6.616 0 12-5.384 12-12s-5.384-12-12-12H224z" fill="#8D4520" p-id="6280"></path><path d="M824 736m-36 0a36 36 0 1 0 72 0 36 36 0 1 0-72 0Z" fill="#FFFFFF" p-id="6281"></path><path d="M824 788c-28.672 0-52-23.328-52-52s23.328-52 52-52 52 23.328 52 52-23.328 52-52 52z m0-72c-11.032 0-20 8.976-20 20s8.968 20 20 20 20-8.976 20-20-8.968-20-20-20z" fill="#8D4520" p-id="6282"></path><path d="M680 736m-36 0a36 36 0 1 0 72 0 36 36 0 1 0-72 0Z" fill="#FFFFFF" p-id="6283"></path><path d="M680 788c-28.672 0-52-23.328-52-52s23.328-52 52-52 52 23.328 52 52-23.328 52-52 52z m0-72c-11.032 0-20 8.976-20 20s8.968 20 20 20 20-8.976 20-20-8.968-20-20-20z" fill="#8D4520" p-id="6284"></path><path d="M372 444h152l40-104 48 160 48-104 32 40h64" fill="#FFFFFF" p-id="6285"></path><path d="M612.008 516a16.008 16.008 0 0 1-15.336-11.4L562.12 389.44l-23.192 60.304A16 16 0 0 1 524 460h-152a16 16 0 0 1 0-32h141.008l36.064-93.744a15.84 15.84 0 0 1 15.536-10.248 16 16 0 0 1 14.72 11.392l35.848 119.52 30.288-65.632a16.032 16.032 0 0 1 12.592-9.184 15.96 15.96 0 0 1 14.432 5.888l27.2 34.008H756a16 16 0 0 1 0 32h-64a16.008 16.008 0 0 1-12.496-6l-15.824-19.784-37.152 80.488a16 16 0 0 1-14.52 9.296z" fill="#8D4520" p-id="6286"></path></svg>